<svg width="12" height="12" viewBox="0 0 12 12" fill="none" xmlns="http://www.w3.org/2000/svg">
<path fill-rule="evenodd" clip-rule="evenodd" d="M6 1.5C6.27614 1.5 6.5 1.72386 6.5 2L6.50039 2.04515C7.59682 2.24571 8.44466 3.09265 8.4974 4.14575L8.5 4.25H7.5C7.5 3.71689 7.08894 3.24552 6.50069 3.07141L6.50039 5.54515C7.63277 5.75229 8.5 6.64889 8.5 7.75C8.5 8.85111 7.63277 9.74771 6.50039 9.95485L6.5 10C6.5 10.2761 6.27614 10.5 6 10.5C5.72386 10.5 5.5 10.2761 5.5 10L5.50011 9.95494C4.40344 9.75454 3.55535 8.90751 3.5026 7.85425L3.5 7.75H4.5C4.5 8.28326 4.9113 8.75475 5.49981 8.92874L5.50011 6.45494C4.36748 6.24797 3.5 5.35127 3.5 4.25C3.5 3.14873 4.36748 2.25203 5.50011 2.04506L5.5 2C5.5 1.72386 5.72386 1.5 6 1.5ZM6.50062 6.57139L6.50069 8.92859C7.08894 8.75448 7.5 8.28311 7.5 7.75C7.5 7.21687 7.0889 6.74548 6.50062 6.57139ZM4.5 4.25C4.5 4.78328 4.91133 5.25479 5.49988 5.42876L5.49981 3.07126C4.9113 3.24525 4.5 3.71674 4.5 4.25Z" fill="#1E5EFF"/>
</svg>
