<svg width="46" height="32" viewBox="0 0 46 32" fill="none" xmlns="http://www.w3.org/2000/svg">
<path fill-rule="evenodd" clip-rule="evenodd" d="M23.7501 31.7476C25.6831 31.7476 27.2501 30.1806 27.2501 28.2477C27.2501 26.3147 25.6831 24.7477 23.7501 24.7477C21.8171 24.7477 20.2501 26.3147 20.2501 28.2477C20.2501 30.1806 21.8171 31.7476 23.7501 31.7476ZM23.7502 30.1917C24.824 30.1917 25.6946 29.3212 25.6946 28.2473C25.6946 27.1734 24.824 26.3028 23.7502 26.3028C22.6763 26.3028 21.8057 27.1734 21.8057 28.2473C21.8057 29.3212 22.6763 30.1917 23.7502 30.1917Z" fill="#FFB71A"/>
<path fill-rule="evenodd" clip-rule="evenodd" d="M35.7501 31.7476C37.683 31.7476 39.25 30.1806 39.25 28.2477C39.25 26.3147 37.683 24.7477 35.7501 24.7477C33.8171 24.7477 32.2501 26.3147 32.2501 28.2477C32.2501 30.1806 33.8171 31.7476 35.7501 31.7476ZM35.7501 30.1917C36.824 30.1917 37.6945 29.3212 37.6945 28.2473C37.6945 27.1734 36.824 26.3028 35.7501 26.3028C34.6762 26.3028 33.8057 27.1734 33.8057 28.2473C33.8057 29.3212 34.6762 30.1917 35.7501 30.1917Z" fill="#FFB71A"/>
<path d="M1.24991 1.25095L6.92346 1.25002C7.7275 1.24988 8.45345 1.73126 8.76624 2.47197L17.2345 22.5254C17.5472 23.266 18.273 23.7473 19.0769 23.7473L44.75 23.7477" stroke="#FFB71A" stroke-width="2.5" stroke-linecap="round"/>
<path d="M19.555 13.9887C19.2394 12.7264 20.1941 11.5036 21.4953 11.5036H29.9337C30.486 11.5036 30.9337 11.9513 30.9337 12.5036C30.9337 13.0559 30.486 13.5036 29.9337 13.5036H25.9337C25.3814 13.5036 24.9337 13.9513 24.9337 14.5036C24.9337 15.0559 25.3814 15.5036 25.9337 15.5036H36.9336C37.4859 15.5036 37.9336 15.9513 37.9336 16.5036C37.9336 17.0559 37.4859 17.5036 36.9336 17.5036H31.9337C31.3814 17.5036 30.9337 17.9513 30.9337 18.5036C30.9337 19.0558 31.3814 19.5036 31.9337 19.5036H42.9336C43.4859 19.5036 43.9336 19.9513 43.9336 20.5036C43.9336 21.0558 43.4859 21.5035 42.9336 21.5035H22.9953C22.0775 21.5035 21.2776 20.879 21.055 19.9886L19.555 13.9887Z" fill="#064BEF"/>
<path d="M43.3123 11.0185C43.6279 12.2808 42.6732 13.5036 41.3721 13.5036H32.9337C32.3814 13.5036 31.9337 13.0559 31.9337 12.5036C31.9337 11.9513 32.3814 11.5036 32.9337 11.5036H36.9336C37.4859 11.5036 37.9336 11.0559 37.9336 10.5036C37.9336 9.95132 37.4859 9.50361 36.9336 9.50361L25.9337 9.50361C25.3814 9.50361 24.9337 9.0559 24.9337 8.50362C24.9337 7.95134 25.3814 7.50362 25.9337 7.50362H30.9337C31.486 7.50362 31.9337 7.05591 31.9337 6.50363C31.9337 5.95135 31.486 5.50363 30.9337 5.50363H19.9337C19.3815 5.50363 18.9337 5.05592 18.9337 4.50364C18.9337 3.95136 19.3815 3.50364 19.9337 3.50364L39.8721 3.50364C40.7898 3.50364 41.5898 4.12823 41.8123 5.01856L43.3123 11.0185Z" fill="#EFAE1A"/>
</svg>
