<svg width="24" height="24" viewBox="0 0 24 24" fill="none" xmlns="http://www.w3.org/2000/svg">
<path fill-rule="evenodd" clip-rule="evenodd" d="M12.0004 3L12 17.2586L7.55917 19.8623C7.08728 20.139 6.4776 19.9856 6.19741 19.5196C6.06775 19.304 6.02662 19.0476 6.08245 18.8029L7.21798 13.828L3.33788 10.4623C2.92558 10.1046 2.88497 9.48469 3.24717 9.07757C3.41477 8.88918 3.64907 8.77131 3.90194 8.74815L9.04454 8.27719L11.0873 3.59335C11.2492 3.22215 11.6155 3.00002 12.0004 3Z" fill="#FFC700"/>
<path fill-rule="evenodd" clip-rule="evenodd" d="M11.9998 17.2586V3C12.1311 2.99994 12.2646 3.02573 12.3928 3.08026C12.6261 3.17944 12.812 3.36304 12.9125 3.59335L14.9552 8.27719L20.0978 8.74815C20.6443 8.79819 21.0462 9.27618 20.9955 9.81576C20.9721 10.0654 20.8527 10.2968 20.6619 10.4623L16.7818 13.828L17.9173 18.8029C18.038 19.3316 17.7018 19.8567 17.1664 19.9758C16.9187 20.031 16.659 19.9904 16.4406 19.8623L11.9998 17.2586Z" fill="#A1A7C4"/>
</svg>
