<svg width="79" height="24" viewBox="0 0 79 24" fill="none" xmlns="http://www.w3.org/2000/svg">
<g clip-path="url(#clip0_1_2372)">
<path fill-rule="evenodd" clip-rule="evenodd" d="M12 5C12.5523 5 13 5.44772 13 6V10.999L18 11C18.5523 11 19 11.4477 19 12C19 12.5523 18.5523 13 18 13L13 12.999V18C13 18.5523 12.5523 19 12 19C11.4477 19 11 18.5523 11 18V12.999L6 13C5.44772 13 5 12.5523 5 12C5 11.4477 5.44772 11 6 11L11 10.999V6C11 5.44772 11.4477 5 12 5Z" fill="white"/>
</g>
<defs>
<clipPath id="clip0_1_2372">
<rect width="79" height="24" fill="white"/>
</clipPath>
</defs>
</svg>
