<svg width="140" height="140" viewBox="0 0 140 140" fill="none" xmlns="http://www.w3.org/2000/svg">
<rect opacity="0.01" width="140" height="140" fill="white"/>
<path fill-rule="evenodd" clip-rule="evenodd" d="M106 16.9797L34 17L34 77.6707C34 78.2201 106 77.9838 106 77.6707V16.9797Z" fill="#D7DBEC"/>
<path fill-rule="evenodd" clip-rule="evenodd" d="M112 25H28V125L33.5 119L38.5 125L44 119L49 125L54.5 119L59.5 125L65 119L70 125L75.5 119L80.5 125L86 119L91 125L96.5 119L101.5 125L107 119L112 125V25Z" fill="#3A4788"/>
<path d="M49.6466 44.5276L52.3536 47.4725L43.3589 55.7403L38.6191 51.216L41.381 48.3226L43.4101 50.26L49.6466 44.5276Z" fill="white"/>
<rect x="60" y="48" width="38" height="4" fill="white"/>
<path d="M49.6466 61.5276L52.3536 64.4725L43.3589 72.7403L38.6191 68.216L41.381 65.3226L43.4101 67.26L49.6466 61.5276Z" fill="white"/>
<rect x="60" y="65" width="38" height="4" fill="white"/>
<path d="M49.6466 78.5276L52.3536 81.4725L43.3589 89.7403L38.6191 85.216L41.381 82.3226L43.4101 84.26L49.6466 78.5276Z" fill="white"/>
<rect x="60" y="82" width="38" height="4" fill="white"/>
</svg>
