<svg width="24" height="24" viewBox="0 0 24 24" fill="none" xmlns="http://www.w3.org/2000/svg">
<path fill-rule="evenodd" clip-rule="evenodd" d="M13.3287 3.5157C13.3873 3.56776 13.4428 3.62322 13.4948 3.68179L19.4948 10.4318C19.8202 10.7979 20 11.2707 20 11.7605V19.0001C20 20.1047 19.1046 21.0001 18 21.0001H14.002C14.0013 21.0001 14.0007 21.0001 14 21.0001H10C9.99934 21.0001 9.99868 21.0001 9.99803 21.0001H6C4.89543 21.0001 4 20.1047 4 19.0001V11.7605C4 11.2707 4.17976 10.7979 4.50518 10.4318L10.5052 3.68179C11.239 2.85623 12.5032 2.78186 13.3287 3.5157ZM11 19.0001H13V15.0001H11V19.0001ZM15 19.0001V14.0001C15 13.4478 14.5523 13.0001 14 13.0001H10C9.44772 13.0001 9 13.4478 9 14.0001V19.0001H6V11.7605L12 5.01052L18 11.7605V19.0001H15Z" fill="white"/>
</svg>
