<svg width="12" height="12" viewBox="0 0 12 12" fill="none" xmlns="http://www.w3.org/2000/svg">
<path fill-rule="evenodd" clip-rule="evenodd" d="M3.75 9.5C4.16421 9.5 4.5 9.83579 4.5 10.25C4.5 10.6642 4.16421 11 3.75 11C3.33579 11 3 10.6642 3 10.25C3 9.83579 3.33579 9.5 3.75 9.5ZM8.75 9.5C9.16421 9.5 9.5 9.83579 9.5 10.25C9.5 10.6642 9.16421 11 8.75 11C8.33579 11 8 10.6642 8 10.25C8 9.83579 8.33579 9.5 8.75 9.5ZM2.25 1C2.36051 1 2.46724 1.03658 2.55401 1.10304L2.60355 1.14645L3.9575 2.5H10.2447C10.5209 2.5 10.7447 2.72386 10.7447 3C10.7447 3.0671 10.7312 3.13351 10.705 3.19527L9.34946 6.39055C9.19271 6.76003 8.83024 7 8.42888 7H4V7.5L4.00336 7.55831C4.03002 7.78785 4.21215 7.96997 4.44169 7.99664L4.5 8H9L9.05831 8.00336C9.30698 8.03225 9.5 8.24358 9.5 8.5C9.5 8.75642 9.30698 8.96775 9.05831 8.99664L9 9H4.5L4.41186 8.99745C3.65362 8.95352 3.04648 8.34638 3.00255 7.58814L3 7.5V6.5L3.00336 6.44169C3.00938 6.38993 3.02329 6.34058 3.04387 6.29488C3.01552 6.20204 3 6.10283 3 6V2.9575L2.0425 2H1.5C1.22386 2 1 1.77614 1 1.5C1 1.22386 1.22386 1 1.5 1H2.25ZM9.489 3.5H4V6H8.42888L9.489 3.5Z" fill="#1E5EFF"/>
</svg>
